<svg width="12" height="12" viewBox="0 0 12 12" fill="none" xmlns="http://www.w3.org/2000/svg">
<g clip-path="url(#clip0_297_1186)">
<path d="M6.00039 7.06877C6.59065 7.06877 7.06914 6.59028 7.06914 6.00002C7.06914 5.40977 6.59065 4.93127 6.00039 4.93127C5.41014 4.93127 4.93164 5.40977 4.93164 6.00002C4.93164 6.59028 5.41014 7.06877 6.00039 7.06877Z" fill="#61DAFB"/>
<path d="M10.059 4.23752C9.85274 4.16252 9.63711 4.08752 9.41211 4.0219C9.46836 3.7969 9.51523 3.5719 9.55274 3.35627C9.74961 2.11877 9.53399 1.2469 8.93398 0.909399C8.75586 0.806274 8.55898 0.759399 8.33399 0.759399C7.67773 0.759399 6.84336 1.2469 5.99961 2.06252C5.15586 1.2469 4.32148 0.759399 3.66523 0.759399C3.44023 0.759399 3.24336 0.806274 3.06523 0.909399C2.46523 1.25627 2.24961 2.12815 2.44648 3.35627C2.48398 3.5719 2.53086 3.7969 2.58711 4.0219C2.36211 4.08752 2.14648 4.15315 1.94023 4.23752C0.76836 4.68752 0.130859 5.30627 0.130859 6.00002C0.130859 6.69377 0.777735 7.31252 1.94023 7.76252C2.14648 7.83752 2.36211 7.91252 2.58711 7.97815C2.53086 8.20315 2.48398 8.42815 2.44648 8.64377C2.24961 9.88127 2.46523 10.7531 3.06523 11.0906C3.24336 11.1938 3.44023 11.2406 3.66523 11.2406C4.33086 11.2406 5.16523 10.7531 5.99961 9.93752C6.84336 10.7531 7.67773 11.2406 8.33399 11.2406C8.55898 11.2406 8.75586 11.1938 8.93398 11.0906C9.53399 10.7438 9.74961 9.8719 9.55274 8.64377C9.51523 8.42815 9.46836 8.20315 9.41211 7.97815C9.63711 7.91252 9.85274 7.8469 10.059 7.76252C11.2309 7.31252 11.8684 6.69377 11.8684 6.00002C11.8684 5.30627 11.2309 4.68752 10.059 4.23752ZM8.67148 1.37815C9.05586 1.60315 9.18711 2.2969 9.02773 3.28127C8.99961 3.47815 8.95273 3.6844 8.89649 3.90002C8.40899 3.78752 7.89336 3.71252 7.34961 3.66565C7.03086 3.21565 6.70273 2.81252 6.37461 2.4469C7.06836 1.76252 7.77148 1.29377 8.34336 1.29377C8.46523 1.29377 8.57773 1.3219 8.67148 1.37815ZM7.62149 6.93752C7.45273 7.23752 7.25586 7.53752 7.04961 7.83752C6.70273 7.86565 6.35586 7.87502 5.99961 7.87502C5.63398 7.87502 5.28711 7.86565 4.94961 7.83752C4.74336 7.53752 4.55586 7.23752 4.38711 6.93752C4.20898 6.62815 4.04023 6.3094 3.89023 6.00002C4.04023 5.69065 4.20898 5.3719 4.38711 5.06252C4.55586 4.76252 4.75273 4.46252 4.95898 4.16252C5.30586 4.1344 5.65273 4.12502 6.00898 4.12502C6.37461 4.12502 6.72149 4.1344 7.05899 4.16252C7.26523 4.46252 7.45273 4.76252 7.62149 5.06252C7.79961 5.3719 7.96836 5.69065 8.11836 6.00002C7.95898 6.3094 7.79961 6.61877 7.62149 6.93752ZM8.39961 6.62815C8.54023 6.95627 8.65273 7.27502 8.75586 7.59377C8.43711 7.66877 8.09961 7.72502 7.74336 7.7719C7.85586 7.59377 7.97773 7.40627 8.08086 7.2094C8.19336 7.01252 8.29648 6.81565 8.39961 6.62815ZM5.99961 9.16877C5.77461 8.92502 5.55898 8.66252 5.35273 8.39065C5.56836 8.40002 5.78398 8.4094 5.99961 8.4094C6.21523 8.4094 6.43086 8.40002 6.64648 8.39065C6.44023 8.66252 6.22461 8.92502 5.99961 9.16877ZM4.25586 7.76252C3.89961 7.71565 3.56211 7.6594 3.24336 7.5844C3.34648 7.27502 3.45898 6.9469 3.59961 6.61877C3.70273 6.80627 3.80586 7.00315 3.91836 7.19065C4.03086 7.3969 4.14336 7.57502 4.25586 7.76252ZM3.59961 5.3719C3.45898 5.04377 3.34648 4.72502 3.24336 4.40627C3.56211 4.33127 3.89961 4.27502 4.25586 4.22815C4.14336 4.40627 4.02148 4.59377 3.91836 4.79065C3.80586 4.98752 3.70273 5.1844 3.59961 5.3719ZM5.99961 2.83127C6.22461 3.07502 6.44023 3.33752 6.64648 3.6094C6.43086 3.60002 6.21523 3.59065 5.99961 3.59065C5.78398 3.59065 5.56836 3.60002 5.35273 3.6094C5.55898 3.33752 5.77461 3.07502 5.99961 2.83127ZM8.08086 4.80002L7.74336 4.23752C8.09961 4.2844 8.43711 4.34065 8.75586 4.41565C8.65273 4.72502 8.54023 5.05315 8.39961 5.38127C8.29648 5.1844 8.19336 4.98752 8.08086 4.80002ZM2.97148 3.28127C2.81211 2.2969 2.94336 1.60315 3.32773 1.37815C3.42148 1.3219 3.53398 1.29377 3.65586 1.29377C4.21836 1.29377 4.92148 1.75315 5.62461 2.4469C5.29648 2.80315 4.96836 3.21565 4.64961 3.66565C4.10586 3.71252 3.59023 3.7969 3.10273 3.90002C3.04648 3.6844 3.00898 3.47815 2.97148 3.28127ZM0.655859 6.00002C0.655859 5.5594 1.19023 5.09065 2.12773 4.74377C2.31523 4.66877 2.52148 4.60315 2.72773 4.5469C2.87773 5.01565 3.06523 5.51252 3.29023 6.0094C3.06523 6.50627 2.86836 6.99377 2.72773 7.46252C1.43398 7.08752 0.655859 6.52502 0.655859 6.00002ZM3.32773 10.6219C2.94336 10.3969 2.81211 9.70315 2.97148 8.71877C2.99961 8.5219 3.04648 8.31565 3.10273 8.10002C3.59023 8.21252 4.10586 8.28752 4.64961 8.3344C4.96836 8.7844 5.29648 9.18752 5.62461 9.55315C4.93086 10.2375 4.22773 10.7063 3.65586 10.7063C3.53398 10.7063 3.42148 10.6781 3.32773 10.6219ZM9.02773 8.71877C9.18711 9.70315 9.05586 10.3969 8.67148 10.6219C8.57773 10.6781 8.46523 10.7063 8.34336 10.7063C7.78086 10.7063 7.07773 10.2469 6.37461 9.55315C6.70273 9.1969 7.03086 8.7844 7.34961 8.3344C7.89336 8.28752 8.40899 8.20315 8.89649 8.10002C8.95273 8.31565 8.99024 8.5219 9.02773 8.71877ZM9.87149 7.25627C9.68399 7.33127 9.47774 7.3969 9.27149 7.45315C9.12148 6.9844 8.93398 6.48752 8.70899 5.99065C8.93398 5.49377 9.13086 5.00627 9.27149 4.53752C10.5652 4.91252 11.3434 5.47502 11.3434 6.00002C11.3434 6.44065 10.7996 6.9094 9.87149 7.25627Z" fill="#61DAFB"/>
</g>
<defs>
<clipPath id="clip0_297_1186">
<rect width="12" height="12" fill="white"/>
</clipPath>
</defs>
</svg>
